<?xml version="1.0" encoding="UTF-8" standalone="no"?>
<!-- Created with Inkscape (http://www.inkscape.org/) -->

<svg
   xmlns:dc="http://purl.org/dc/elements/1.1/"
   xmlns:cc="http://creativecommons.org/ns#"
   xmlns:rdf="http://www.w3.org/1999/02/22-rdf-syntax-ns#"
   xmlns:svg="http://www.w3.org/2000/svg"
   xmlns="http://www.w3.org/2000/svg"
   xmlns:xlink="http://www.w3.org/1999/xlink"
   xmlns:sodipodi="http://sodipodi.sourceforge.net/DTD/sodipodi-0.dtd"
   xmlns:inkscape="http://www.inkscape.org/namespaces/inkscape"
   version="1.0"
   width="900"
   height="500"
   id="svg548"
   inkscape:version="0.91 r13725"
   sodipodi:docname="Flag_of_Myanmar_(1974-2010).svg">
  <metadata
     id="metadata76">
    <rdf:RDF>
      <cc:Work
         rdf:about="">
        <dc:format>image/svg+xml</dc:format>
        <dc:type
           rdf:resource="http://purl.org/dc/dcmitype/StillImage" />
      </cc:Work>
    </rdf:RDF>
  </metadata>
  <sodipodi:namedview
     pagecolor="#ffffff"
     bordercolor="#666666"
     borderopacity="1"
     objecttolerance="10"
     gridtolerance="10"
     guidetolerance="10"
     inkscape:pageopacity="0"
     inkscape:pageshadow="2"
     inkscape:window-width="2560"
     inkscape:window-height="1360"
     id="namedview74"
     showgrid="false"
     inkscape:zoom="0.944"
     inkscape:cx="345.45429"
     inkscape:cy="286.18333"
     inkscape:window-x="-11"
     inkscape:window-y="-11"
     inkscape:window-maximized="1"
     inkscape:current-layer="svg548" />
  <defs
     id="defs550">
    <linearGradient
       x1="0"
       y1="0"
       x2="1"
       y2="0"
       id="linearGradient604"
       gradientUnits="objectBoundingBox"
       spreadMethod="pad">
      <stop
         id="stop605"
         style="stop-color: rgb(0, 0, 0); stop-opacity: 1;"
         offset="0" />
      <stop
         id="stop606"
         style="stop-color: rgb(255, 255, 255); stop-opacity: 1;"
         offset="1" />
    </linearGradient>
    <radialGradient
       cx="0.5"
       cy="0.5"
       r="0.5"
       fx="0.5"
       fy="0.5"
       id="radialGradient607"
       xlink:href="#linearGradient604"
       gradientUnits="objectBoundingBox"
       spreadMethod="pad" />
    <linearGradient
       x1="1.04e-06"
       y1="-2e-07"
       x2="1.0000011"
       y2="-2e-07"
       id="linearGradient608"
       xlink:href="#linearGradient604"
       gradientUnits="objectBoundingBox"
       gradientTransform="translate(1.03914e-06, -2.00218e-07)"
       spreadMethod="pad" />
  </defs>
  <rect
     width="900"
     height="500"
     x="0"
     y="-1.6431301e-14"
     id="rect781"
     style="font-size: 12px; fill: rgb(218, 45, 28); fill-rule: evenodd; stroke-width: 1pt;" />
  <rect
     width="389.76379"
     height="248.03151"
     x="0"
     y="1.4749145e-07"
     id="rect578"
     style="font-size: 12px; fill: rgb(32, 66, 161); fill-rule: evenodd; stroke-width: 1pt;" />
  <path
     inkscape:connector-curvature="0"
     style="fill:#ffffff;fill-opacity:1;stroke:none;stroke-width:0.5;stroke-miterlimit:4;stroke-dasharray:none;stroke-opacity:1"
     d="m 194.14244,57.761069 a 68.520037,68.520037 0 0 0 -4.84678,0.171891 68.520037,68.520037 0 0 0 -3.32249,0.403309 l -0.37726,11.929274 a 56.708178,56.708178 0 0 0 -8.52867,2.007249 l -5.62439,-10.562335 a 68.520037,68.520037 0 0 0 -2.12891,0.707281 68.520037,68.520037 0 0 0 -6.25168,2.79787 68.520037,68.520037 0 0 0 -5.79144,3.322473 l 4.87357,10.996525 a 56.708178,56.708178 0 0 0 -6.84176,5.478916 l -9.65191,-7.077273 a 68.520037,68.520037 0 0 0 -3.91516,4.203131 68.520037,68.520037 0 0 0 -4.14509,5.4525 68.520037,68.520037 0 0 0 -1.66309,2.713042 l 9.09494,7.735443 a 56.708178,56.708178 0 0 0 -3.75369,7.916635 l -11.75999,-2.18732 a 68.520037,68.520037 0 0 0 -0.82559,2.26248 68.520037,68.520037 0 0 0 -1.69472,6.63601 68.520037,68.520037 0 0 0 -0.97331,6.44031 l 11.62605,3.04343 a 56.708178,56.708178 0 0 0 -0.20649,4.12909 56.708178,56.708178 0 0 0 0.21803,4.63919 l -11.50476,3.12118 a 68.520037,68.520037 0 0 0 0.47177,3.88614 68.520037,68.520037 0 0 0 1.49976,6.68252 68.520037,68.520037 0 0 0 1.58124,4.75824 l 11.70158,-2.28405 a 56.708178,56.708178 0 0 0 3.88837,7.8597 l -9.08638,7.86865 a 68.520037,68.520037 0 0 0 0.2809,0.48999 68.520037,68.520037 0 0 0 3.98399,5.57119 68.520037,68.520037 0 0 0 4.52012,5.14593 68.520037,68.520037 0 0 0 1.10315,1.02762 l 9.60541,-7.17513 a 56.708178,56.708178 0 0 0 6.84846,5.47185 l -4.73146,10.93737 a 68.520037,68.520037 0 0 0 3.47762,2.13189 68.520037,68.520037 0 0 0 6.16722,2.97906 68.520037,68.520037 0 0 0 4.55585,1.66309 l 5.50532,-10.56382 a 56.708178,56.708178 0 0 0 8.57258,1.85359 L 186.58,194.35 a 68.520037,68.520037 0 0 0 0.72216,0.10902 68.520037,68.520037 0 0 0 6.84028,0.34229 68.520037,68.520037 0 0 0 4.84716,-0.17189 68.520037,68.520037 0 0 0 3.3221,-0.40331 l 0.37726,-11.92928 a 56.708178,56.708178 0 0 0 8.52867,-2.00724 l 5.62439,10.56233 a 68.520037,68.520037 0 0 0 2.1293,-0.70728 68.520037,68.520037 0 0 0 6.25167,-2.79787 68.520037,68.520037 0 0 0 5.79145,-3.32247 l -4.87358,-10.99653 a 56.708178,56.708178 0 0 0 6.84176,-5.47891 l 9.65191,7.07727 a 68.520037,68.520037 0 0 0 3.91516,-4.20313 68.520037,68.520037 0 0 0 4.14509,-5.4525 68.520037,68.520037 0 0 0 1.66309,-2.71304 l -9.09494,-7.73582 a 56.708178,56.708178 0 0 0 3.75369,-7.91626 l 11.75998,2.18732 a 68.520037,68.520037 0 0 0 0.8256,-2.26248 68.520037,68.520037 0 0 0 1.69472,-6.63638 68.520037,68.520037 0 0 0 0.97331,-6.43995 l -11.62606,-3.04342 a 56.708178,56.708178 0 0 0 0.20649,-4.12947 56.708178,56.708178 0 0 0 -0.2184,-4.63881 l 11.50514,-3.12081 a 68.520037,68.520037 0 0 0 -0.47176,-3.88652 68.520037,68.520037 0 0 0 -1.50014,-6.68289 68.520037,68.520037 0 0 0 -1.58088,-4.75787 l -11.70157,2.28406 a 56.708178,56.708178 0 0 0 -3.88837,-7.859708 l 9.08638,-7.86864 a 68.520037,68.520037 0 0 0 -0.2809,-0.489999 68.520037,68.520037 0 0 0 -3.984,-5.571187 68.520037,68.520037 0 0 0 -4.52012,-5.145924 68.520037,68.520037 0 0 0 -1.10315,-1.027622 l -9.60539,7.175126 a 56.708178,56.708178 0 0 0 -6.84847,-5.471847 l 4.73146,-10.93737 a 68.520037,68.520037 0 0 0 -3.47763,-2.131887 68.520037,68.520037 0 0 0 -6.16722,-2.979064 68.520037,68.520037 0 0 0 -4.55584,-1.663097 l -5.50533,10.563824 a 56.708178,56.708178 0 0 0 -8.57257,-1.85359 l -0.48665,-12.004801 a 68.520037,68.520037 0 0 0 -0.72216,-0.109012 68.520037,68.520037 0 0 0 -6.84065,-0.342293 z m 0,37.128343 A 31.391748,31.391748 0 0 1 225.5344,126.281 31.391748,31.391748 0 0 1 194.14244,157.67297 31.391748,31.391748 0 0 1 162.75085,126.281 31.391748,31.391748 0 0 1 194.14244,94.889412 Z"
     id="path4278" />
  <g
     id="g4560"
     transform="matrix(0.37763838,-0.00506091,0.00506091,0.37763838,327.35972,-31.573654)"
     style="stroke-width:3.17735781;stroke-miterlimit:4;stroke-dasharray:none">
    <g
       style="fill:#ffffff;stroke:#2042a1;stroke-width:3.17735781;stroke-miterlimit:4;stroke-dasharray:none;stroke-opacity:1"
       id="g4548">
      <path
         style="fill:#ffffff;fill-rule:evenodd;stroke:#2042a1;stroke-width:3.17735781;stroke-linecap:butt;stroke-linejoin:miter;stroke-miterlimit:4;stroke-dasharray:none;stroke-opacity:1"
         d="m -377.11864,592.75454 8.47457,0 c -4.73045,-48.26639 -14.22725,-95.86768 -49.54212,-148.30469 -7.87982,-10.03101 -14.6378,-21.561 -33.61466,-37.14053 l -18.06723,0.25153 -6.26505,9.5394 c 0.28824,54.06152 6.47067,64.8929 12.15008,86.60738 2.6192,-23.08972 3.07541,-43.29546 9.5339,-71.50424 14.88007,15.9548 29.76013,29.8993 44.6402,55.26893 28.18812,44.40648 32.40231,76.22081 32.69031,105.28222 z"
         id="path4524"
         inkscape:connector-curvature="0"
         sodipodi:nodetypes="cccccccccc" />
      <path
         style="fill:#ffffff;fill-rule:evenodd;stroke:#2042a1;stroke-width:3.17735781;stroke-linecap:butt;stroke-linejoin:miter;stroke-miterlimit:4;stroke-dasharray:none;stroke-opacity:1"
         d="m -461.66578,425.97988 4.45216,3.44373 3.25534,3.18506"
         id="path4526"
         inkscape:connector-curvature="0"
         sodipodi:nodetypes="ccc" />
    </g>
    <path
       sodipodi:nodetypes="ccccc"
       inkscape:connector-curvature="0"
       id="path4534"
       d="m -366.28731,592.75454 5.43064,0 -0.0341,-27.21233 -6.14561,-0.18727 z"
       style="fill:#ffffff;fill-rule:evenodd;stroke:#2042a1;stroke-width:3.17735781;stroke-linecap:butt;stroke-linejoin:miter;stroke-miterlimit:4;stroke-dasharray:none;stroke-opacity:1" />
    <path
       sodipodi:nodetypes="ccccc"
       inkscape:connector-curvature="0"
       id="path4536"
       d="m -356.73687,592.75454 6.38578,0 -0.5712,-31.49862 -6.55228,6.63179 z"
       style="fill:#ffffff;fill-rule:evenodd;stroke:#2042a1;stroke-width:3.17735781;stroke-linecap:butt;stroke-linejoin:miter;stroke-miterlimit:4;stroke-dasharray:none;stroke-opacity:1" />
    <g
       style="fill:#ffffff;stroke:#2042a1;stroke-width:3.17735781;stroke-miterlimit:4;stroke-dasharray:none;stroke-opacity:1"
       id="g4552">
      <path
         style="fill:#ffffff;fill-rule:evenodd;stroke:#2042a1;stroke-width:3.17735781;stroke-linecap:butt;stroke-linejoin:miter;stroke-miterlimit:4;stroke-dasharray:none;stroke-opacity:1"
         d="m -347.45762,592.75454 -0.18175,-46.59418 c 10.5375,-54.52651 40.79067,-94.13116 68.90916,-140.55751 11.34694,-2.69488 16.23583,-3.26315 25.55224,-2.00116 17.72401,39.9045 9.28116,86.3351 3.70763,102.22458 -0.03,-29.57441 -9.16192,-53.30818 -15.9807,-79.26189 -19.99215,18.61645 -77.55763,71.98029 -74.59133,166.19016 z"
         id="path4532"
         inkscape:connector-curvature="0"
         sodipodi:nodetypes="cccccccc" />
      <path
         style="fill:#ffffff;fill-rule:evenodd;stroke:#2042a1;stroke-width:3.17735781;stroke-linecap:butt;stroke-linejoin:miter;stroke-miterlimit:4;stroke-dasharray:none;stroke-opacity:1"
         d="m -265.77365,426.96726 4.54114,-4.58796"
         id="path4538"
         inkscape:connector-curvature="0"
         sodipodi:nodetypes="cc" />
    </g>
    <g
       style="fill:#ffffff;stroke:#2042a1;stroke-width:3.17735781;stroke-miterlimit:4;stroke-dasharray:none;stroke-opacity:1"
       id="g4556">
      <path
         style="fill:#ffffff;fill-rule:evenodd;stroke:#2042a1;stroke-width:3.17735781;stroke-linecap:butt;stroke-linejoin:miter;stroke-miterlimit:4;stroke-dasharray:none;stroke-opacity:1"
         d="m -314.2386,414.79986 c 7.78165,-22.01296 16.81052,-45.10368 39.40328,-83.78834 l 26.95396,-1.56237 c 16.27173,37.16226 14.93168,63.5302 16.4195,91.63136 -9.41625,-22.42232 -15.50137,-44.84463 -31.77967,-67.26695 -21.2105,23.22952 -32.33215,47.29977 -48.19915,70.97458 z"
         id="path4530"
         inkscape:connector-curvature="0"
         sodipodi:nodetypes="ccccccc" />
      <path
         style="fill:#ffffff;fill-rule:evenodd;stroke:#2042a1;stroke-width:3.17735781;stroke-linecap:butt;stroke-linejoin:miter;stroke-miterlimit:4;stroke-dasharray:none;stroke-opacity:1"
         d="m -264.27554,354.96446 5.43064,-6.41377"
         id="path4540"
         inkscape:connector-curvature="0"
         sodipodi:nodetypes="cc" />
    </g>
    <g
       style="fill:#ffffff;stroke:#2042a1;stroke-width:3.17735781;stroke-miterlimit:4;stroke-dasharray:none;stroke-opacity:1"
       id="g4544">
      <path
         style="fill:#ffffff;fill-rule:evenodd;stroke:#2042a1;stroke-width:3.17735781;stroke-linecap:butt;stroke-linejoin:miter;stroke-miterlimit:4;stroke-dasharray:none;stroke-opacity:1"
         d="m -389.18336,444.10745 c 0.21803,0.26719 -20.30525,-77.28083 -27.31746,-86.92866 l -22.28341,-31.06273 c -7.51364,-0.76416 -11.35958,-1.10835 -19.37255,-0.37453 -4.9483,7.06215 -9.84346,13.00071 -13.30578,20.06286 -8.25726,16.11467 -13.95189,39.66515 -17.84783,56.74901 l -0.62605,16.40846 c 11.75724,-22.08758 18.88485,-43.73425 40.25424,-66.73728 26.37801,31.5586 40.23417,69.56745 54.76897,106.06072 l 5.78862,-7.4951 z"
         id="path4528"
         inkscape:connector-curvature="0"
         sodipodi:nodetypes="ccccccccccc" />
      <path
         style="fill:#ffffff;fill-rule:evenodd;stroke:#2042a1;stroke-width:3.17735781;stroke-linecap:butt;stroke-linejoin:miter;stroke-miterlimit:4;stroke-dasharray:none;stroke-opacity:1"
         d="m -449.43228,352.4364 -5.19656,-6.46059"
         id="path4542"
         inkscape:connector-curvature="0"
         sodipodi:nodetypes="cc" />
    </g>
    <g
       style="stroke-width:3.1773578;stroke-miterlimit:4;stroke-dasharray:none"
       id="g4334"
       transform="matrix(0.96853329,-0.24888405,0.24888405,0.96853329,-158.19569,-337.74194)">
      <path
         style="fill:#ffffff;fill-rule:evenodd;stroke:#2042a1;stroke-width:3.1773578;stroke-linecap:butt;stroke-linejoin:miter;stroke-miterlimit:4;stroke-dasharray:none;stroke-opacity:1"
         d="m -372.467,562.73325 14.60655,-0.37453 c 1.63699,-9.02118 9.30026,-32.65377 -8.80139,-46.06681 -13.47024,20.39238 -9.35483,32.10396 -5.80516,46.44134 z"
         id="path4336"
         inkscape:connector-curvature="0"
         sodipodi:nodetypes="cccc" />
      <path
         style="fill:#2042a1;fill-opacity:1;fill-rule:evenodd;stroke:#2042a1;stroke-width:3.1773578;stroke-linecap:butt;stroke-linejoin:miter;stroke-miterlimit:4;stroke-dasharray:none;stroke-opacity:1"
         d="m -371.82203,562.56621 0.13241,-9.5339 0.48056,8.64761 1.37325,-0.39725 c -0.64801,-7.85413 -0.28475,-11.6555 -0.0662,-15.00354 -0.46761,4.66694 0.48743,10.01437 0.96002,14.83802 l 1.22484,-0.19862 -0.0662,-4.70824 0.8607,4.70824 c 1.76859,-0.40789 2.43858,-0.43023 4.10487,-0.0331 l 0.0662,-5.00618 0.59587,4.97307 1.58898,0.0662 c 0.64436,-3.68149 0.10283,-9.72767 -0.0662,-15.03663 0.48221,4.96699 1.82485,9.88958 1.19174,15.33456 l 1.32415,0.43035 c 0,0 0.72829,0.65458 0.46346,0.72078 -0.26483,0.0662 -13.8374,0.33104 -13.8374,0.33104 z"
         id="path4338"
         inkscape:connector-curvature="0"
         sodipodi:nodetypes="ccccccccccccccccscc" />
    </g>
    <g
       style="stroke-width:3.17735779;stroke-miterlimit:4;stroke-dasharray:none"
       transform="matrix(0.99996979,-0.00777366,0.00777366,0.99996979,0.86505309,-241.97249)"
       id="g4340">
      <path
         sodipodi:nodetypes="cccc"
         inkscape:connector-curvature="0"
         id="path4342"
         d="m -372.467,562.73325 14.60655,-0.37453 c 1.63699,-9.02118 9.30026,-32.65377 -8.80139,-46.06681 -13.47024,20.39238 -9.35483,32.10396 -5.80516,46.44134 z"
         style="fill:#ffffff;fill-rule:evenodd;stroke:#2042a1;stroke-width:3.17735779;stroke-linecap:butt;stroke-linejoin:miter;stroke-miterlimit:4;stroke-dasharray:none;stroke-opacity:1" />
      <path
         sodipodi:nodetypes="ccccccccccccccccscc"
         inkscape:connector-curvature="0"
         id="path4344"
         d="m -371.82203,562.56621 0.13241,-9.5339 0.48056,8.64761 1.37325,-0.39725 c -0.64801,-7.85413 -0.28475,-11.6555 -0.0662,-15.00354 -0.46761,4.66694 0.48743,10.01437 0.96002,14.83802 l 1.22484,-0.19862 -0.0662,-4.70824 0.8607,4.70824 c 1.76859,-0.40789 2.43858,-0.43023 4.10487,-0.0331 l 0.0662,-5.00618 0.59587,4.97307 1.58898,0.0662 c 0.64436,-3.68149 0.10283,-9.72767 -0.0662,-15.03663 0.48221,4.96699 1.82485,9.88958 1.19174,15.33456 l 1.32415,0.43035 c 0,0 0.72829,0.65458 0.46346,0.72078 -0.26483,0.0662 -13.8374,0.33104 -13.8374,0.33104 z"
         style="fill:#2042a1;fill-opacity:1;fill-rule:evenodd;stroke:#2042a1;stroke-width:3.17735779;stroke-linecap:butt;stroke-linejoin:miter;stroke-miterlimit:4;stroke-dasharray:none;stroke-opacity:1" />
    </g>
    <g
       style="stroke-width:3.1773578;stroke-miterlimit:4;stroke-dasharray:none"
       id="g4346"
       transform="matrix(0.9259243,-0.37770914,0.37770914,0.9259243,-241.1098,-328.98837)">
      <path
         style="fill:#ffffff;fill-rule:evenodd;stroke:#2042a1;stroke-width:3.1773578;stroke-linecap:butt;stroke-linejoin:miter;stroke-miterlimit:4;stroke-dasharray:none;stroke-opacity:1"
         d="m -372.467,562.73325 14.60655,-0.37453 c 1.63699,-9.02118 9.30026,-32.65377 -8.80139,-46.06681 -13.47024,20.39238 -9.35483,32.10396 -5.80516,46.44134 z"
         id="path4348"
         inkscape:connector-curvature="0"
         sodipodi:nodetypes="cccc" />
      <path
         style="fill:#2042a1;fill-opacity:1;fill-rule:evenodd;stroke:#2042a1;stroke-width:3.1773578;stroke-linecap:butt;stroke-linejoin:miter;stroke-miterlimit:4;stroke-dasharray:none;stroke-opacity:1"
         d="m -371.82203,562.56621 0.13241,-9.5339 0.48056,8.64761 1.37325,-0.39725 c -0.64801,-7.85413 -0.28475,-11.6555 -0.0662,-15.00354 -0.46761,4.66694 0.48743,10.01437 0.96002,14.83802 l 1.22484,-0.19862 -0.0662,-4.70824 0.8607,4.70824 c 1.76859,-0.40789 2.43858,-0.43023 4.10487,-0.0331 l 0.0662,-5.00618 0.59587,4.97307 1.58898,0.0662 c 0.64436,-3.68149 0.10283,-9.72767 -0.0662,-15.03663 0.48221,4.96699 1.82485,9.88958 1.19174,15.33456 l 1.32415,0.43035 c 0,0 0.72829,0.65458 0.46346,0.72078 -0.26483,0.0662 -13.8374,0.33104 -13.8374,0.33104 z"
         id="path4350"
         inkscape:connector-curvature="0"
         sodipodi:nodetypes="ccccccccccccccccscc" />
    </g>
    <g
       style="stroke-width:3.1773578;stroke-miterlimit:4;stroke-dasharray:none"
       transform="matrix(0.9707258,0.24019039,-0.24019039,0.9707258,123.74098,-110.87729)"
       id="g4352">
      <path
         sodipodi:nodetypes="cccc"
         inkscape:connector-curvature="0"
         id="path4354"
         d="m -372.467,562.73325 14.60655,-0.37453 c 1.63699,-9.02118 9.30026,-32.65377 -8.80139,-46.06681 -13.47024,20.39238 -9.35483,32.10396 -5.80516,46.44134 z"
         style="fill:#ffffff;fill-rule:evenodd;stroke:#2042a1;stroke-width:3.1773578;stroke-linecap:butt;stroke-linejoin:miter;stroke-miterlimit:4;stroke-dasharray:none;stroke-opacity:1" />
      <path
         sodipodi:nodetypes="ccccccccccccccccscc"
         inkscape:connector-curvature="0"
         id="path4356"
         d="m -371.82203,562.56621 0.13241,-9.5339 0.48056,8.64761 1.37325,-0.39725 c -0.64801,-7.85413 -0.28475,-11.6555 -0.0662,-15.00354 -0.46761,4.66694 0.48743,10.01437 0.96002,14.83802 l 1.22484,-0.19862 -0.0662,-4.70824 0.8607,4.70824 c 1.76859,-0.40789 2.43858,-0.43023 4.10487,-0.0331 l 0.0662,-5.00618 0.59587,4.97307 1.58898,0.0662 c 0.64436,-3.68149 0.10283,-9.72767 -0.0662,-15.03663 0.48221,4.96699 1.82485,9.88958 1.19174,15.33456 l 1.32415,0.43035 c 0,0 0.72829,0.65458 0.46346,0.72078 -0.26483,0.0662 -13.8374,0.33104 -13.8374,0.33104 z"
         style="fill:#2042a1;fill-opacity:1;fill-rule:evenodd;stroke:#2042a1;stroke-width:3.1773578;stroke-linecap:butt;stroke-linejoin:miter;stroke-miterlimit:4;stroke-dasharray:none;stroke-opacity:1" />
    </g>
    <g
       style="stroke-width:3.17735779;stroke-miterlimit:4;stroke-dasharray:none"
       id="g4358"
       transform="matrix(0.97911624,-0.20330125,0.20330125,0.97911624,-125.99525,-261.85179)">
      <path
         style="fill:#ffffff;fill-rule:evenodd;stroke:#2042a1;stroke-width:3.17735779;stroke-linecap:butt;stroke-linejoin:miter;stroke-miterlimit:4;stroke-dasharray:none;stroke-opacity:1"
         d="m -372.467,562.73325 14.60655,-0.37453 c 1.63699,-9.02118 9.30026,-32.65377 -8.80139,-46.06681 -13.47024,20.39238 -9.35483,32.10396 -5.80516,46.44134 z"
         id="path4360"
         inkscape:connector-curvature="0"
         sodipodi:nodetypes="cccc" />
      <path
         style="fill:#2042a1;fill-opacity:1;fill-rule:evenodd;stroke:#2042a1;stroke-width:3.17735779;stroke-linecap:butt;stroke-linejoin:miter;stroke-miterlimit:4;stroke-dasharray:none;stroke-opacity:1"
         d="m -371.82203,562.56621 0.13241,-9.5339 0.48056,8.64761 1.37325,-0.39725 c -0.64801,-7.85413 -0.28475,-11.6555 -0.0662,-15.00354 -0.46761,4.66694 0.48743,10.01437 0.96002,14.83802 l 1.22484,-0.19862 -0.0662,-4.70824 0.8607,4.70824 c 1.76859,-0.40789 2.43858,-0.43023 4.10487,-0.0331 l 0.0662,-5.00618 0.59587,4.97307 1.58898,0.0662 c 0.64436,-3.68149 0.10283,-9.72767 -0.0662,-15.03663 0.48221,4.96699 1.82485,9.88958 1.19174,15.33456 l 1.32415,0.43035 c 0,0 0.72829,0.65458 0.46346,0.72078 -0.26483,0.0662 -13.8374,0.33104 -13.8374,0.33104 z"
         id="path4362"
         inkscape:connector-curvature="0"
         sodipodi:nodetypes="ccccccccccccccccscc" />
    </g>
    <g
       style="stroke-width:3.17735781;stroke-miterlimit:4;stroke-dasharray:none"
       transform="matrix(0.95342551,0.30162857,-0.30162857,0.95342551,156.86382,-62.355781)"
       id="g4364">
      <path
         sodipodi:nodetypes="cccc"
         inkscape:connector-curvature="0"
         id="path4366"
         d="m -372.467,562.73325 14.60655,-0.37453 c 1.63699,-9.02118 9.30026,-32.65377 -8.80139,-46.06681 -13.47024,20.39238 -9.35483,32.10396 -5.80516,46.44134 z"
         style="fill:#ffffff;fill-rule:evenodd;stroke:#2042a1;stroke-width:3.17735781;stroke-linecap:butt;stroke-linejoin:miter;stroke-miterlimit:4;stroke-dasharray:none;stroke-opacity:1" />
      <path
         sodipodi:nodetypes="ccccccccccccccccscc"
         inkscape:connector-curvature="0"
         id="path4368"
         d="m -371.82203,562.56621 0.13241,-9.5339 0.48056,8.64761 1.37325,-0.39725 c -0.64801,-7.85413 -0.28475,-11.6555 -0.0662,-15.00354 -0.46761,4.66694 0.48743,10.01437 0.96002,14.83802 l 1.22484,-0.19862 -0.0662,-4.70824 0.8607,4.70824 c 1.76859,-0.40789 2.43858,-0.43023 4.10487,-0.0331 l 0.0662,-5.00618 0.59587,4.97307 1.58898,0.0662 c 0.64436,-3.68149 0.10283,-9.72767 -0.0662,-15.03663 0.48221,4.96699 1.82485,9.88958 1.19174,15.33456 l 1.32415,0.43035 c 0,0 0.72829,0.65458 0.46346,0.72078 -0.26483,0.0662 -13.8374,0.33104 -13.8374,0.33104 z"
         style="fill:#2042a1;fill-opacity:1;fill-rule:evenodd;stroke:#2042a1;stroke-width:3.17735781;stroke-linecap:butt;stroke-linejoin:miter;stroke-miterlimit:4;stroke-dasharray:none;stroke-opacity:1" />
    </g>
    <g
       style="stroke-width:3.03204647;stroke-miterlimit:4;stroke-dasharray:none"
       id="g4370"
       transform="matrix(0.99197788,0.31835948,-0.31382512,1.0063107,178.64139,-58.860202)">
      <path
         style="fill:#ffffff;fill-rule:evenodd;stroke:#2042a1;stroke-width:3.03204647;stroke-linecap:butt;stroke-linejoin:miter;stroke-miterlimit:4;stroke-dasharray:none;stroke-opacity:1"
         d="m -372.467,562.73325 14.60655,-0.37453 c 1.63699,-9.02118 9.30026,-32.65377 -8.80139,-46.06681 -13.47024,20.39238 -9.35483,32.10396 -5.80516,46.44134 z"
         id="path4372"
         inkscape:connector-curvature="0"
         sodipodi:nodetypes="cccc" />
      <path
         style="fill:#2042a1;fill-opacity:1;fill-rule:evenodd;stroke:#2042a1;stroke-width:3.03204647;stroke-linecap:butt;stroke-linejoin:miter;stroke-miterlimit:4;stroke-dasharray:none;stroke-opacity:1"
         d="m -371.82203,562.56621 0.13241,-9.5339 0.48056,8.64761 1.37325,-0.39725 c -0.64801,-7.85413 -0.28475,-11.6555 -0.0662,-15.00354 -0.46761,4.66694 0.48743,10.01437 0.96002,14.83802 l 1.22484,-0.19862 -0.0662,-4.70824 0.8607,4.70824 c 1.76859,-0.40789 2.43858,-0.43023 4.10487,-0.0331 l 0.0662,-5.00618 0.59587,4.97307 1.58898,0.0662 c 0.64436,-3.68149 0.10283,-9.72767 -0.0662,-15.03663 0.48221,4.96699 1.82485,9.88958 1.19174,15.33456 l 1.32415,0.43035 c 0,0 0.72829,0.65458 0.46346,0.72078 -0.26483,0.0662 -13.8374,0.33104 -13.8374,0.33104 z"
         id="path4374"
         inkscape:connector-curvature="0"
         sodipodi:nodetypes="ccccccccccccccccscc" />
    </g>
    <g
       style="stroke-width:3.0167795;stroke-miterlimit:4;stroke-dasharray:none"
       transform="matrix(0.99717612,-0.00613232,0.00549714,1.1123976,-12.192739,-231.26251)"
       id="g4376">
      <path
         sodipodi:nodetypes="cccc"
         inkscape:connector-curvature="0"
         id="path4378"
         d="m -372.467,562.73325 14.60655,-0.37453 c 1.63699,-9.02118 9.30026,-32.65377 -8.80139,-46.06681 -13.47024,20.39238 -9.35483,32.10396 -5.80516,46.44134 z"
         style="fill:#ffffff;fill-rule:evenodd;stroke:#2042a1;stroke-width:3.0167795;stroke-linecap:butt;stroke-linejoin:miter;stroke-miterlimit:4;stroke-dasharray:none;stroke-opacity:1" />
      <path
         sodipodi:nodetypes="ccccccccccccccccscc"
         inkscape:connector-curvature="0"
         id="path4380"
         d="m -371.82203,562.56621 0.13241,-9.5339 0.48056,8.64761 1.37325,-0.39725 c -0.64801,-7.85413 -0.28475,-11.6555 -0.0662,-15.00354 -0.46761,4.66694 0.48743,10.01437 0.96002,14.83802 l 1.22484,-0.19862 -0.0662,-4.70824 0.8607,4.70824 c 1.76859,-0.40789 2.43858,-0.43023 4.10487,-0.0331 l 0.0662,-5.00618 0.59587,4.97307 1.58898,0.0662 c 0.64436,-3.68149 0.10283,-9.72767 -0.0662,-15.03663 0.48221,4.96699 1.82485,9.88958 1.19174,15.33456 l 1.32415,0.43035 c 0,0 0.72829,0.65458 0.46346,0.72078 -0.26483,0.0662 -13.8374,0.33104 -13.8374,0.33104 z"
         style="fill:#2042a1;fill-opacity:1;fill-rule:evenodd;stroke:#2042a1;stroke-width:3.0167795;stroke-linecap:butt;stroke-linejoin:miter;stroke-miterlimit:4;stroke-dasharray:none;stroke-opacity:1" />
    </g>
    <g
       style="stroke-width:3.01659625;stroke-miterlimit:4;stroke-dasharray:none"
       transform="matrix(1.0192192,0.34000141,-0.35753583,0.96923422,210.35326,7.7702911)"
       id="g4394">
      <path
         sodipodi:nodetypes="cccc"
         inkscape:connector-curvature="0"
         id="path4396"
         d="m -372.467,562.73325 14.60655,-0.37453 c 1.63699,-9.02118 9.30026,-32.65377 -8.80139,-46.06681 -13.47024,20.39238 -9.35483,32.10396 -5.80516,46.44134 z"
         style="fill:#ffffff;fill-rule:evenodd;stroke:#2042a1;stroke-width:3.01659625;stroke-linecap:butt;stroke-linejoin:miter;stroke-miterlimit:4;stroke-dasharray:none;stroke-opacity:1" />
      <path
         sodipodi:nodetypes="ccccccccccccccccscc"
         inkscape:connector-curvature="0"
         id="path4398"
         d="m -371.82203,562.56621 0.13241,-9.5339 0.48056,8.64761 1.37325,-0.39725 c -0.64801,-7.85413 -0.28475,-11.6555 -0.0662,-15.00354 -0.46761,4.66694 0.48743,10.01437 0.96002,14.83802 l 1.22484,-0.19862 -0.0662,-4.70824 0.8607,4.70824 c 1.76859,-0.40789 2.43858,-0.43023 4.10487,-0.0331 l 0.0662,-5.00618 0.59587,4.97307 1.58898,0.0662 c 0.64436,-3.68149 0.10283,-9.72767 -0.0662,-15.03663 0.48221,4.96699 1.82485,9.88958 1.19174,15.33456 l 1.32415,0.43035 c 0,0 0.72829,0.65458 0.46346,0.72078 -0.26483,0.0662 -13.8374,0.33104 -13.8374,0.33104 z"
         style="fill:#2042a1;fill-opacity:1;fill-rule:evenodd;stroke:#2042a1;stroke-width:3.01659625;stroke-linecap:butt;stroke-linejoin:miter;stroke-miterlimit:4;stroke-dasharray:none;stroke-opacity:1" />
    </g>
    <g
       style="stroke-width:3.01659625;stroke-miterlimit:4;stroke-dasharray:none"
       id="g4382"
       transform="matrix(1.0192192,0.34000141,-0.35753583,0.96923422,197.90622,5.121986)">
      <path
         style="fill:#ffffff;fill-rule:evenodd;stroke:#2042a1;stroke-width:3.01659625;stroke-linecap:butt;stroke-linejoin:miter;stroke-miterlimit:4;stroke-dasharray:none;stroke-opacity:1"
         d="m -372.467,562.73325 14.60655,-0.37453 c 1.63699,-9.02118 9.30026,-32.65377 -8.80139,-46.06681 -13.47024,20.39238 -9.35483,32.10396 -5.80516,46.44134 z"
         id="path4384"
         inkscape:connector-curvature="0"
         sodipodi:nodetypes="cccc" />
      <path
         style="fill:#2042a1;fill-opacity:1;fill-rule:evenodd;stroke:#2042a1;stroke-width:3.01659625;stroke-linecap:butt;stroke-linejoin:miter;stroke-miterlimit:4;stroke-dasharray:none;stroke-opacity:1"
         d="m -371.82203,562.56621 0.13241,-9.5339 0.48056,8.64761 1.37325,-0.39725 c -0.64801,-7.85413 -0.28475,-11.6555 -0.0662,-15.00354 -0.46761,4.66694 0.48743,10.01437 0.96002,14.83802 l 1.22484,-0.19862 -0.0662,-4.70824 0.8607,4.70824 c 1.76859,-0.40789 2.43858,-0.43023 4.10487,-0.0331 l 0.0662,-5.00618 0.59587,4.97307 1.58898,0.0662 c 0.64436,-3.68149 0.10283,-9.72767 -0.0662,-15.03663 0.48221,4.96699 1.82485,9.88958 1.19174,15.33456 l 1.32415,0.43035 c 0,0 0.72829,0.65458 0.46346,0.72078 -0.26483,0.0662 -13.8374,0.33104 -13.8374,0.33104 z"
         id="path4386"
         inkscape:connector-curvature="0"
         sodipodi:nodetypes="ccccccccccccccccscc" />
    </g>
    <g
       style="stroke-width:3.07942212;stroke-miterlimit:4;stroke-dasharray:none"
       transform="matrix(1.0290795,-0.25850043,0.27557714,0.96531043,-152.36572,-210.66819)"
       id="g4388">
      <path
         sodipodi:nodetypes="cccc"
         inkscape:connector-curvature="0"
         id="path4390"
         d="m -372.467,562.73325 14.60655,-0.37453 c 1.63699,-9.02118 9.30026,-32.65377 -8.80139,-46.06681 -13.47024,20.39238 -9.35483,32.10396 -5.80516,46.44134 z"
         style="fill:#ffffff;fill-rule:evenodd;stroke:#2042a1;stroke-width:3.07942212;stroke-linecap:butt;stroke-linejoin:miter;stroke-miterlimit:4;stroke-dasharray:none;stroke-opacity:1" />
      <path
         sodipodi:nodetypes="ccccccccccccccccscc"
         inkscape:connector-curvature="0"
         id="path4392"
         d="m -371.82203,562.56621 0.13241,-9.5339 0.48056,8.64761 1.37325,-0.39725 c -0.64801,-7.85413 -0.28475,-11.6555 -0.0662,-15.00354 -0.46761,4.66694 0.48743,10.01437 0.96002,14.83802 l 1.22484,-0.19862 -0.0662,-4.70824 0.8607,4.70824 c 1.76859,-0.40789 2.43858,-0.43023 4.10487,-0.0331 l 0.0662,-5.00618 0.59587,4.97307 1.58898,0.0662 c 0.64436,-3.68149 0.10283,-9.72767 -0.0662,-15.03663 0.48221,4.96699 1.82485,9.88958 1.19174,15.33456 l 1.32415,0.43035 c 0,0 0.72829,0.65458 0.46346,0.72078 -0.26483,0.0662 -13.8374,0.33104 -13.8374,0.33104 z"
         style="fill:#2042a1;fill-opacity:1;fill-rule:evenodd;stroke:#2042a1;stroke-width:3.07942212;stroke-linecap:butt;stroke-linejoin:miter;stroke-miterlimit:4;stroke-dasharray:none;stroke-opacity:1" />
    </g>
    <g
       style="stroke-width:3.07942203;stroke-miterlimit:4;stroke-dasharray:none"
       transform="matrix(1.0158739,0.30631265,-0.25892759,0.96990901,156.20657,24.40636)"
       id="g4406">
      <path
         sodipodi:nodetypes="cccc"
         inkscape:connector-curvature="0"
         id="path4408"
         d="m -372.467,562.73325 14.60655,-0.37453 c 1.63699,-9.02118 9.30026,-32.65377 -8.80139,-46.06681 -13.47024,20.39238 -9.35483,32.10396 -5.80516,46.44134 z"
         style="fill:#ffffff;fill-rule:evenodd;stroke:#2042a1;stroke-width:3.07942203;stroke-linecap:butt;stroke-linejoin:miter;stroke-miterlimit:4;stroke-dasharray:none;stroke-opacity:1" />
      <path
         sodipodi:nodetypes="ccccccccccccccccscc"
         inkscape:connector-curvature="0"
         id="path4410"
         d="m -371.82203,562.56621 0.13241,-9.5339 0.48056,8.64761 1.37325,-0.39725 c -0.64801,-7.85413 -0.28475,-11.6555 -0.0662,-15.00354 -0.46761,4.66694 0.48743,10.01437 0.96002,14.83802 l 1.22484,-0.19862 -0.0662,-4.70824 0.8607,4.70824 c 1.76859,-0.40789 2.43858,-0.43023 4.10487,-0.0331 l 0.0662,-5.00618 0.59587,4.97307 1.58898,0.0662 c 0.64436,-3.68149 0.10283,-9.72767 -0.0662,-15.03663 0.48221,4.96699 1.82485,9.88958 1.19174,15.33456 l 1.32415,0.43035 c 0,0 0.72829,0.65458 0.46346,0.72078 -0.26483,0.0662 -13.8374,0.33104 -13.8374,0.33104 z"
         style="fill:#2042a1;fill-opacity:1;fill-rule:evenodd;stroke:#2042a1;stroke-width:3.07942203;stroke-linecap:butt;stroke-linejoin:miter;stroke-miterlimit:4;stroke-dasharray:none;stroke-opacity:1" />
    </g>
    <g
       style="stroke-width:3.07942203;stroke-miterlimit:4;stroke-dasharray:none"
       id="g4412"
       transform="matrix(1.0158739,0.30631265,-0.25892759,0.96990901,140.31674,22.287716)">
      <path
         style="fill:#ffffff;fill-rule:evenodd;stroke:#2042a1;stroke-width:3.07942203;stroke-linecap:butt;stroke-linejoin:miter;stroke-miterlimit:4;stroke-dasharray:none;stroke-opacity:1"
         d="m -372.467,562.73325 14.60655,-0.37453 c 1.63699,-9.02118 9.30026,-32.65377 -8.80139,-46.06681 -13.47024,20.39238 -9.35483,32.10396 -5.80516,46.44134 z"
         id="path4414"
         inkscape:connector-curvature="0"
         sodipodi:nodetypes="cccc" />
      <path
         style="fill:#2042a1;fill-opacity:1;fill-rule:evenodd;stroke:#2042a1;stroke-width:3.07942203;stroke-linecap:butt;stroke-linejoin:miter;stroke-miterlimit:4;stroke-dasharray:none;stroke-opacity:1"
         d="m -371.82203,562.56621 0.13241,-9.5339 0.48056,8.64761 1.37325,-0.39725 c -0.64801,-7.85413 -0.28475,-11.6555 -0.0662,-15.00354 -0.46761,4.66694 0.48743,10.01437 0.96002,14.83802 l 1.22484,-0.19862 -0.0662,-4.70824 0.8607,4.70824 c 1.76859,-0.40789 2.43858,-0.43023 4.10487,-0.0331 l 0.0662,-5.00618 0.59587,4.97307 1.58898,0.0662 c 0.64436,-3.68149 0.10283,-9.72767 -0.0662,-15.03663 0.48221,4.96699 1.82485,9.88958 1.19174,15.33456 l 1.32415,0.43035 c 0,0 0.72829,0.65458 0.46346,0.72078 -0.26483,0.0662 -13.8374,0.33104 -13.8374,0.33104 z"
         id="path4416"
         inkscape:connector-curvature="0"
         sodipodi:nodetypes="ccccccccccccccccscc" />
    </g>
    <g
       style="stroke-width:2.96850358;stroke-miterlimit:4;stroke-dasharray:none"
       id="g4400"
       transform="matrix(1.0494498,-0.15385482,0.16644141,1.067279,-96.245184,-197.97279)">
      <path
         style="fill:#ffffff;fill-rule:evenodd;stroke:#2042a1;stroke-width:2.96850358;stroke-linecap:butt;stroke-linejoin:miter;stroke-miterlimit:4;stroke-dasharray:none;stroke-opacity:1"
         d="m -372.467,562.73325 14.60655,-0.37453 c 1.63699,-9.02118 9.30026,-32.65377 -8.80139,-46.06681 -13.47024,20.39238 -9.35483,32.10396 -5.80516,46.44134 z"
         id="path4402"
         inkscape:connector-curvature="0"
         sodipodi:nodetypes="cccc" />
      <path
         style="fill:#2042a1;fill-opacity:1;fill-rule:evenodd;stroke:#2042a1;stroke-width:2.96850358;stroke-linecap:butt;stroke-linejoin:miter;stroke-miterlimit:4;stroke-dasharray:none;stroke-opacity:1"
         d="m -371.82203,562.56621 0.13241,-9.5339 0.48056,8.64761 1.37325,-0.39725 c -0.64801,-7.85413 -0.28475,-11.6555 -0.0662,-15.00354 -0.46761,4.66694 0.48743,10.01437 0.96002,14.83802 l 1.22484,-0.19862 -0.0662,-4.70824 0.8607,4.70824 c 1.76859,-0.40789 2.43858,-0.43023 4.10487,-0.0331 l 0.0662,-5.00618 0.59587,4.97307 1.58898,0.0662 c 0.64436,-3.68149 0.10283,-9.72767 -0.0662,-15.03663 0.48221,4.96699 1.82485,9.88958 1.19174,15.33456 l 1.32415,0.43035 c 0,0 0.72829,0.65458 0.46346,0.72078 -0.26483,0.0662 -13.8374,0.33104 -13.8374,0.33104 z"
         id="path4404"
         inkscape:connector-curvature="0"
         sodipodi:nodetypes="ccccccccccccccccscc" />
    </g>
    <g
       style="stroke-width:2.82056652;stroke-miterlimit:4;stroke-dasharray:none"
       id="g4432"
       transform="matrix(1.179289,0.26126527,-0.28929051,1.0119762,213.92798,14.687307)">
      <path
         style="fill:#ffffff;fill-rule:evenodd;stroke:#2042a1;stroke-width:2.82056652;stroke-linecap:butt;stroke-linejoin:miter;stroke-miterlimit:4;stroke-dasharray:none;stroke-opacity:1"
         d="m -372.467,562.73325 14.60655,-0.37453 c 1.63699,-9.02118 9.30026,-32.65377 -8.80139,-46.06681 -13.47024,20.39238 -9.35483,32.10396 -5.80516,46.44134 z"
         id="path4434"
         inkscape:connector-curvature="0"
         sodipodi:nodetypes="cccc" />
      <path
         style="fill:#2042a1;fill-opacity:1;fill-rule:evenodd;stroke:#2042a1;stroke-width:2.82056652;stroke-linecap:butt;stroke-linejoin:miter;stroke-miterlimit:4;stroke-dasharray:none;stroke-opacity:1"
         d="m -371.82203,562.56621 0.13241,-9.5339 0.48056,8.64761 1.37325,-0.39725 c -0.64801,-7.85413 -0.28475,-11.6555 -0.0662,-15.00354 -0.46761,4.66694 0.48743,10.01437 0.96002,14.83802 l 1.22484,-0.19862 -0.0662,-4.70824 0.8607,4.70824 c 1.76859,-0.40789 2.43858,-0.43023 4.10487,-0.0331 l 0.0662,-5.00618 0.59587,4.97307 1.58898,0.0662 c 0.64436,-3.68149 0.10283,-9.72767 -0.0662,-15.03663 0.48221,4.96699 1.82485,9.88958 1.19174,15.33456 l 1.32415,0.43035 c 0,0 0.72829,0.65458 0.46346,0.72078 -0.26483,0.0662 -13.8374,0.33104 -13.8374,0.33104 z"
         id="path4436"
         inkscape:connector-curvature="0"
         sodipodi:nodetypes="ccccccccccccccccscc" />
    </g>
    <g
       style="stroke-width:3.03006005;stroke-miterlimit:4;stroke-dasharray:none"
       transform="matrix(1.058793,-0.281438,0.29935046,0.9589588,-161.88522,-150.91803)"
       id="g4438">
      <path
         sodipodi:nodetypes="cccc"
         inkscape:connector-curvature="0"
         id="path4440"
         d="m -372.467,562.73325 14.60655,-0.37453 c 1.63699,-9.02118 9.30026,-32.65377 -8.80139,-46.06681 -13.47024,20.39238 -9.35483,32.10396 -5.80516,46.44134 z"
         style="fill:#ffffff;fill-rule:evenodd;stroke:#2042a1;stroke-width:3.03006005;stroke-linecap:butt;stroke-linejoin:miter;stroke-miterlimit:4;stroke-dasharray:none;stroke-opacity:1" />
      <path
         sodipodi:nodetypes="ccccccccccccccccscc"
         inkscape:connector-curvature="0"
         id="path4442"
         d="m -371.82203,562.56621 0.13241,-9.5339 0.48056,8.64761 1.37325,-0.39725 c -0.64801,-7.85413 -0.28475,-11.6555 -0.0662,-15.00354 -0.46761,4.66694 0.48743,10.01437 0.96002,14.83802 l 1.22484,-0.19862 -0.0662,-4.70824 0.8607,4.70824 c 1.76859,-0.40789 2.43858,-0.43023 4.10487,-0.0331 l 0.0662,-5.00618 0.59587,4.97307 1.58898,0.0662 c 0.64436,-3.68149 0.10283,-9.72767 -0.0662,-15.03663 0.48221,4.96699 1.82485,9.88958 1.19174,15.33456 l 1.32415,0.43035 c 0,0 0.72829,0.65458 0.46346,0.72078 -0.26483,0.0662 -13.8374,0.33104 -13.8374,0.33104 z"
         style="fill:#2042a1;fill-opacity:1;fill-rule:evenodd;stroke:#2042a1;stroke-width:3.03006005;stroke-linecap:butt;stroke-linejoin:miter;stroke-miterlimit:4;stroke-dasharray:none;stroke-opacity:1" />
    </g>
    <g
       transform="matrix(0.92407182,-0.38221889,0.38221889,0.92407182,-199.68404,-343.92662)"
       id="g4450"
       style="stroke-width:3.17735779;stroke-miterlimit:4;stroke-dasharray:none">
      <path
         sodipodi:nodetypes="cccc"
         inkscape:connector-curvature="0"
         id="path4452"
         d="m -372.467,562.73325 14.60655,-0.37453 c 1.63699,-9.02118 9.30026,-32.65377 -8.80139,-46.06681 -13.47024,20.39238 -9.35483,32.10396 -5.80516,46.44134 z"
         style="fill:#ffffff;fill-rule:evenodd;stroke:#2042a1;stroke-width:3.17735779;stroke-linecap:butt;stroke-linejoin:miter;stroke-miterlimit:4;stroke-dasharray:none;stroke-opacity:1" />
      <path
         sodipodi:nodetypes="ccccccccccccccccscc"
         inkscape:connector-curvature="0"
         id="path4454"
         d="m -371.82203,562.56621 0.13241,-9.5339 0.48056,8.64761 1.37325,-0.39725 c -0.64801,-7.85413 -0.28475,-11.6555 -0.0662,-15.00354 -0.46761,4.66694 0.48743,10.01437 0.96002,14.83802 l 1.22484,-0.19862 -0.0662,-4.70824 0.8607,4.70824 c 1.76859,-0.40789 2.43858,-0.43023 4.10487,-0.0331 l 0.0662,-5.00618 0.59587,4.97307 1.58898,0.0662 c 0.64436,-3.68149 0.10283,-9.72767 -0.0662,-15.03663 0.48221,4.96699 1.82485,9.88958 1.19174,15.33456 l 1.32415,0.43035 c 0,0 0.72829,0.65458 0.46346,0.72078 -0.26483,0.0662 -13.8374,0.33104 -13.8374,0.33104 z"
         style="fill:#2042a1;fill-opacity:1;fill-rule:evenodd;stroke:#2042a1;stroke-width:3.17735779;stroke-linecap:butt;stroke-linejoin:miter;stroke-miterlimit:4;stroke-dasharray:none;stroke-opacity:1" />
    </g>
    <g
       style="stroke-width:3.1773578;stroke-miterlimit:4;stroke-dasharray:none"
       id="g4456"
       transform="matrix(0.99995468,-0.00952047,0.00952047,0.99995468,44.112312,-232.1871)">
      <path
         style="fill:#ffffff;fill-rule:evenodd;stroke:#2042a1;stroke-width:3.1773578;stroke-linecap:butt;stroke-linejoin:miter;stroke-miterlimit:4;stroke-dasharray:none;stroke-opacity:1"
         d="m -372.467,562.73325 14.60655,-0.37453 c 1.63699,-9.02118 9.30026,-32.65377 -8.80139,-46.06681 -13.47024,20.39238 -9.35483,32.10396 -5.80516,46.44134 z"
         id="path4458"
         inkscape:connector-curvature="0"
         sodipodi:nodetypes="cccc" />
      <path
         style="fill:#2042a1;fill-opacity:1;fill-rule:evenodd;stroke:#2042a1;stroke-width:3.1773578;stroke-linecap:butt;stroke-linejoin:miter;stroke-miterlimit:4;stroke-dasharray:none;stroke-opacity:1"
         d="m -371.82203,562.56621 0.13241,-9.5339 0.48056,8.64761 1.37325,-0.39725 c -0.64801,-7.85413 -0.28475,-11.6555 -0.0662,-15.00354 -0.46761,4.66694 0.48743,10.01437 0.96002,14.83802 l 1.22484,-0.19862 -0.0662,-4.70824 0.8607,4.70824 c 1.76859,-0.40789 2.43858,-0.43023 4.10487,-0.0331 l 0.0662,-5.00618 0.59587,4.97307 1.58898,0.0662 c 0.64436,-3.68149 0.10283,-9.72767 -0.0662,-15.03663 0.48221,4.96699 1.82485,9.88958 1.19174,15.33456 l 1.32415,0.43035 c 0,0 0.72829,0.65458 0.46346,0.72078 -0.26483,0.0662 -13.8374,0.33104 -13.8374,0.33104 z"
         id="path4460"
         inkscape:connector-curvature="0"
         sodipodi:nodetypes="ccccccccccccccccscc" />
    </g>
    <g
       transform="matrix(0.91804878,-0.39646746,0.39646746,0.91804878,-209.87048,-323.7756)"
       id="g4462"
       style="stroke-width:3.17735779;stroke-miterlimit:4;stroke-dasharray:none">
      <path
         sodipodi:nodetypes="cccc"
         inkscape:connector-curvature="0"
         id="path4464"
         d="m -372.467,562.73325 14.60655,-0.37453 c 1.63699,-9.02118 9.30026,-32.65377 -8.80139,-46.06681 -13.47024,20.39238 -9.35483,32.10396 -5.80516,46.44134 z"
         style="fill:#ffffff;fill-rule:evenodd;stroke:#2042a1;stroke-width:3.17735779;stroke-linecap:butt;stroke-linejoin:miter;stroke-miterlimit:4;stroke-dasharray:none;stroke-opacity:1" />
      <path
         sodipodi:nodetypes="ccccccccccccccccscc"
         inkscape:connector-curvature="0"
         id="path4466"
         d="m -371.82203,562.56621 0.13241,-9.5339 0.48056,8.64761 1.37325,-0.39725 c -0.64801,-7.85413 -0.28475,-11.6555 -0.0662,-15.00354 -0.46761,4.66694 0.48743,10.01437 0.96002,14.83802 l 1.22484,-0.19862 -0.0662,-4.70824 0.8607,4.70824 c 1.76859,-0.40789 2.43858,-0.43023 4.10487,-0.0331 l 0.0662,-5.00618 0.59587,4.97307 1.58898,0.0662 c 0.64436,-3.68149 0.10283,-9.72767 -0.0662,-15.03663 0.48221,4.96699 1.82485,9.88958 1.19174,15.33456 l 1.32415,0.43035 c 0,0 0.72829,0.65458 0.46346,0.72078 -0.26483,0.0662 -13.8374,0.33104 -13.8374,0.33104 z"
         style="fill:#2042a1;fill-opacity:1;fill-rule:evenodd;stroke:#2042a1;stroke-width:3.17735779;stroke-linecap:butt;stroke-linejoin:miter;stroke-miterlimit:4;stroke-dasharray:none;stroke-opacity:1" />
    </g>
    <g
       style="stroke-width:3.17735778;stroke-miterlimit:4;stroke-dasharray:none"
       id="g4468"
       transform="matrix(0.98789847,0.15510199,-0.15510199,0.98789847,132.46086,-138.81446)">
      <path
         style="fill:#ffffff;fill-rule:evenodd;stroke:#2042a1;stroke-width:3.17735778;stroke-linecap:butt;stroke-linejoin:miter;stroke-miterlimit:4;stroke-dasharray:none;stroke-opacity:1"
         d="m -372.467,562.73325 14.60655,-0.37453 c 1.63699,-9.02118 9.30026,-32.65377 -8.80139,-46.06681 -13.47024,20.39238 -9.35483,32.10396 -5.80516,46.44134 z"
         id="path4470"
         inkscape:connector-curvature="0"
         sodipodi:nodetypes="cccc" />
      <path
         style="fill:#2042a1;fill-opacity:1;fill-rule:evenodd;stroke:#2042a1;stroke-width:3.17735778;stroke-linecap:butt;stroke-linejoin:miter;stroke-miterlimit:4;stroke-dasharray:none;stroke-opacity:1"
         d="m -371.82203,562.56621 0.13241,-9.5339 0.48056,8.64761 1.37325,-0.39725 c -0.64801,-7.85413 -0.28475,-11.6555 -0.0662,-15.00354 -0.46761,4.66694 0.48743,10.01437 0.96002,14.83802 l 1.22484,-0.19862 -0.0662,-4.70824 0.8607,4.70824 c 1.76859,-0.40789 2.43858,-0.43023 4.10487,-0.0331 l 0.0662,-5.00618 0.59587,4.97307 1.58898,0.0662 c 0.64436,-3.68149 0.10283,-9.72767 -0.0662,-15.03663 0.48221,4.96699 1.82485,9.88958 1.19174,15.33456 l 1.32415,0.43035 c 0,0 0.72829,0.65458 0.46346,0.72078 -0.26483,0.0662 -13.8374,0.33104 -13.8374,0.33104 z"
         id="path4472"
         inkscape:connector-curvature="0"
         sodipodi:nodetypes="ccccccccccccccccscc" />
    </g>
    <g
       transform="matrix(0.96985583,-0.24367946,0.24367946,0.96985583,-104.34391,-270.46258)"
       id="g4474"
       style="stroke-width:3.17735779;stroke-miterlimit:4;stroke-dasharray:none">
      <path
         sodipodi:nodetypes="cccc"
         inkscape:connector-curvature="0"
         id="path4476"
         d="m -372.467,562.73325 14.60655,-0.37453 c 1.63699,-9.02118 9.30026,-32.65377 -8.80139,-46.06681 -13.47024,20.39238 -9.35483,32.10396 -5.80516,46.44134 z"
         style="fill:#ffffff;fill-rule:evenodd;stroke:#2042a1;stroke-width:3.17735779;stroke-linecap:butt;stroke-linejoin:miter;stroke-miterlimit:4;stroke-dasharray:none;stroke-opacity:1" />
      <path
         sodipodi:nodetypes="ccccccccccccccccscc"
         inkscape:connector-curvature="0"
         id="path4478"
         d="m -371.82203,562.56621 0.13241,-9.5339 0.48056,8.64761 1.37325,-0.39725 c -0.64801,-7.85413 -0.28475,-11.6555 -0.0662,-15.00354 -0.46761,4.66694 0.48743,10.01437 0.96002,14.83802 l 1.22484,-0.19862 -0.0662,-4.70824 0.8607,4.70824 c 1.76859,-0.40789 2.43858,-0.43023 4.10487,-0.0331 l 0.0662,-5.00618 0.59587,4.97307 1.58898,0.0662 c 0.64436,-3.68149 0.10283,-9.72767 -0.0662,-15.03663 0.48221,4.96699 1.82485,9.88958 1.19174,15.33456 l 1.32415,0.43035 c 0,0 0.72829,0.65458 0.46346,0.72078 -0.26483,0.0662 -13.8374,0.33104 -13.8374,0.33104 z"
         style="fill:#2042a1;fill-opacity:1;fill-rule:evenodd;stroke:#2042a1;stroke-width:3.17735779;stroke-linecap:butt;stroke-linejoin:miter;stroke-miterlimit:4;stroke-dasharray:none;stroke-opacity:1" />
    </g>
    <g
       style="stroke-width:3.17735778;stroke-miterlimit:4;stroke-dasharray:none"
       id="g4480"
       transform="matrix(0.99618623,0.08725256,-0.08725256,0.99618623,101.42643,-137.89878)">
      <path
         style="fill:#ffffff;fill-rule:evenodd;stroke:#2042a1;stroke-width:3.17735778;stroke-linecap:butt;stroke-linejoin:miter;stroke-miterlimit:4;stroke-dasharray:none;stroke-opacity:1"
         d="m -372.467,562.73325 14.60655,-0.37453 c 1.63699,-9.02118 9.30026,-32.65377 -8.80139,-46.06681 -13.47024,20.39238 -9.35483,32.10396 -5.80516,46.44134 z"
         id="path4482"
         inkscape:connector-curvature="0"
         sodipodi:nodetypes="cccc" />
      <path
         style="fill:#2042a1;fill-opacity:1;fill-rule:evenodd;stroke:#2042a1;stroke-width:3.17735778;stroke-linecap:butt;stroke-linejoin:miter;stroke-miterlimit:4;stroke-dasharray:none;stroke-opacity:1"
         d="m -371.82203,562.56621 0.13241,-9.5339 0.48056,8.64761 1.37325,-0.39725 c -0.64801,-7.85413 -0.28475,-11.6555 -0.0662,-15.00354 -0.46761,4.66694 0.48743,10.01437 0.96002,14.83802 l 1.22484,-0.19862 -0.0662,-4.70824 0.8607,4.70824 c 1.76859,-0.40789 2.43858,-0.43023 4.10487,-0.0331 l 0.0662,-5.00618 0.59587,4.97307 1.58898,0.0662 c 0.64436,-3.68149 0.10283,-9.72767 -0.0662,-15.03663 0.48221,4.96699 1.82485,9.88958 1.19174,15.33456 l 1.32415,0.43035 c 0,0 0.72829,0.65458 0.46346,0.72078 -0.26483,0.0662 -13.8374,0.33104 -13.8374,0.33104 z"
         id="path4484"
         inkscape:connector-curvature="0"
         sodipodi:nodetypes="ccccccccccccccccscc" />
    </g>
    <g
       transform="matrix(0.99104788,-0.13350697,0.13350697,0.99104788,-39.010276,-209.10701)"
       id="g4486"
       style="stroke-width:3.17735779;stroke-miterlimit:4;stroke-dasharray:none">
      <path
         sodipodi:nodetypes="cccc"
         inkscape:connector-curvature="0"
         id="path4488"
         d="m -372.467,562.73325 14.60655,-0.37453 c 1.63699,-9.02118 9.30026,-32.65377 -8.80139,-46.06681 -13.47024,20.39238 -9.35483,32.10396 -5.80516,46.44134 z"
         style="fill:#ffffff;fill-rule:evenodd;stroke:#2042a1;stroke-width:3.17735779;stroke-linecap:butt;stroke-linejoin:miter;stroke-miterlimit:4;stroke-dasharray:none;stroke-opacity:1" />
      <path
         sodipodi:nodetypes="ccccccccccccccccscc"
         inkscape:connector-curvature="0"
         id="path4490"
         d="m -371.82203,562.56621 0.13241,-9.5339 0.48056,8.64761 1.37325,-0.39725 c -0.64801,-7.85413 -0.28475,-11.6555 -0.0662,-15.00354 -0.46761,4.66694 0.48743,10.01437 0.96002,14.83802 l 1.22484,-0.19862 -0.0662,-4.70824 0.8607,4.70824 c 1.76859,-0.40789 2.43858,-0.43023 4.10487,-0.0331 l 0.0662,-5.00618 0.59587,4.97307 1.58898,0.0662 c 0.64436,-3.68149 0.10283,-9.72767 -0.0662,-15.03663 0.48221,4.96699 1.82485,9.88958 1.19174,15.33456 l 1.32415,0.43035 c 0,0 0.72829,0.65458 0.46346,0.72078 -0.26483,0.0662 -13.8374,0.33104 -13.8374,0.33104 z"
         style="fill:#2042a1;fill-opacity:1;fill-rule:evenodd;stroke:#2042a1;stroke-width:3.17735779;stroke-linecap:butt;stroke-linejoin:miter;stroke-miterlimit:4;stroke-dasharray:none;stroke-opacity:1" />
    </g>
    <g
       style="stroke-width:3.17735778;stroke-miterlimit:4;stroke-dasharray:none"
       id="g4492"
       transform="matrix(0.98343753,0.18124746,-0.18124746,0.98343753,143.90583,-61.268386)">
      <path
         style="fill:#ffffff;fill-rule:evenodd;stroke:#2042a1;stroke-width:3.17735778;stroke-linecap:butt;stroke-linejoin:miter;stroke-miterlimit:4;stroke-dasharray:none;stroke-opacity:1"
         d="m -372.467,562.73325 14.60655,-0.37453 c 1.63699,-9.02118 9.30026,-32.65377 -8.80139,-46.06681 -13.47024,20.39238 -9.35483,32.10396 -5.80516,46.44134 z"
         id="path4494"
         inkscape:connector-curvature="0"
         sodipodi:nodetypes="cccc" />
      <path
         style="fill:#2042a1;fill-opacity:1;fill-rule:evenodd;stroke:#2042a1;stroke-width:3.17735778;stroke-linecap:butt;stroke-linejoin:miter;stroke-miterlimit:4;stroke-dasharray:none;stroke-opacity:1"
         d="m -371.82203,562.56621 0.13241,-9.5339 0.48056,8.64761 1.37325,-0.39725 c -0.64801,-7.85413 -0.28475,-11.6555 -0.0662,-15.00354 -0.46761,4.66694 0.48743,10.01437 0.96002,14.83802 l 1.22484,-0.19862 -0.0662,-4.70824 0.8607,4.70824 c 1.76859,-0.40789 2.43858,-0.43023 4.10487,-0.0331 l 0.0662,-5.00618 0.59587,4.97307 1.58898,0.0662 c 0.64436,-3.68149 0.10283,-9.72767 -0.0662,-15.03663 0.48221,4.96699 1.82485,9.88958 1.19174,15.33456 l 1.32415,0.43035 c 0,0 0.72829,0.65458 0.46346,0.72078 -0.26483,0.0662 -13.8374,0.33104 -13.8374,0.33104 z"
         id="path4496"
         inkscape:connector-curvature="0"
         sodipodi:nodetypes="ccccccccccccccccscc" />
    </g>
    <g
       transform="matrix(0.99574824,-0.09211661,0.09211661,0.99574824,-16.385391,-164.56091)"
       id="g4498"
       style="stroke-width:3.17735776;stroke-miterlimit:4;stroke-dasharray:none">
      <path
         sodipodi:nodetypes="cccc"
         inkscape:connector-curvature="0"
         id="path4500"
         d="m -372.467,562.73325 14.60655,-0.37453 c 1.63699,-9.02118 9.30026,-32.65377 -8.80139,-46.06681 -13.47024,20.39238 -9.35483,32.10396 -5.80516,46.44134 z"
         style="fill:#ffffff;fill-rule:evenodd;stroke:#2042a1;stroke-width:3.17735776;stroke-linecap:butt;stroke-linejoin:miter;stroke-miterlimit:4;stroke-dasharray:none;stroke-opacity:1" />
      <path
         sodipodi:nodetypes="ccccccccccccccccscc"
         inkscape:connector-curvature="0"
         id="path4502"
         d="m -371.82203,562.56621 0.13241,-9.5339 0.48056,8.64761 1.37325,-0.39725 c -0.64801,-7.85413 -0.28475,-11.6555 -0.0662,-15.00354 -0.46761,4.66694 0.48743,10.01437 0.96002,14.83802 l 1.22484,-0.19862 -0.0662,-4.70824 0.8607,4.70824 c 1.76859,-0.40789 2.43858,-0.43023 4.10487,-0.0331 l 0.0662,-5.00618 0.59587,4.97307 1.58898,0.0662 c 0.64436,-3.68149 0.10283,-9.72767 -0.0662,-15.03663 0.48221,4.96699 1.82485,9.88958 1.19174,15.33456 l 1.32415,0.43035 c 0,0 0.72829,0.65458 0.46346,0.72078 -0.26483,0.0662 -13.8374,0.33104 -13.8374,0.33104 z"
         style="fill:#2042a1;fill-opacity:1;fill-rule:evenodd;stroke:#2042a1;stroke-width:3.17735776;stroke-linecap:butt;stroke-linejoin:miter;stroke-miterlimit:4;stroke-dasharray:none;stroke-opacity:1" />
    </g>
    <g
       transform="matrix(0.99373996,-0.11171804,0.11171804,0.99373996,-33.796902,-134.6406)"
       id="g4510"
       style="stroke-width:3.17735776;stroke-miterlimit:4;stroke-dasharray:none">
      <path
         sodipodi:nodetypes="cccc"
         inkscape:connector-curvature="0"
         id="path4512"
         d="m -372.467,562.73325 14.60655,-0.37453 c 1.63699,-9.02118 9.30026,-32.65377 -8.80139,-46.06681 -13.47024,20.39238 -9.35483,32.10396 -5.80516,46.44134 z"
         style="fill:#ffffff;fill-rule:evenodd;stroke:#2042a1;stroke-width:3.17735776;stroke-linecap:butt;stroke-linejoin:miter;stroke-miterlimit:4;stroke-dasharray:none;stroke-opacity:1" />
      <path
         sodipodi:nodetypes="ccccccccccccccccscc"
         inkscape:connector-curvature="0"
         id="path4514"
         d="m -371.82203,562.56621 0.13241,-9.5339 0.48056,8.64761 1.37325,-0.39725 c -0.64801,-7.85413 -0.28475,-11.6555 -0.0662,-15.00354 -0.46761,4.66694 0.48743,10.01437 0.96002,14.83802 l 1.22484,-0.19862 -0.0662,-4.70824 0.8607,4.70824 c 1.76859,-0.40789 2.43858,-0.43023 4.10487,-0.0331 l 0.0662,-5.00618 0.59587,4.97307 1.58898,0.0662 c 0.64436,-3.68149 0.10283,-9.72767 -0.0662,-15.03663 0.48221,4.96699 1.82485,9.88958 1.19174,15.33456 l 1.32415,0.43035 c 0,0 0.72829,0.65458 0.46346,0.72078 -0.26483,0.0662 -13.8374,0.33104 -13.8374,0.33104 z"
         style="fill:#2042a1;fill-opacity:1;fill-rule:evenodd;stroke:#2042a1;stroke-width:3.17735776;stroke-linecap:butt;stroke-linejoin:miter;stroke-miterlimit:4;stroke-dasharray:none;stroke-opacity:1" />
    </g>
    <g
       style="stroke-width:3.17735775;stroke-miterlimit:4;stroke-dasharray:none"
       id="g4504"
       transform="matrix(0.97009861,0.24271119,-0.24271119,0.97009861,168.45976,-3.7382845)">
      <path
         style="fill:#ffffff;fill-rule:evenodd;stroke:#2042a1;stroke-width:3.17735775;stroke-linecap:butt;stroke-linejoin:miter;stroke-miterlimit:4;stroke-dasharray:none;stroke-opacity:1"
         d="m -372.467,562.73325 14.60655,-0.37453 c 1.63699,-9.02118 9.30026,-32.65377 -8.80139,-46.06681 -13.47024,20.39238 -9.35483,32.10396 -5.80516,46.44134 z"
         id="path4506"
         inkscape:connector-curvature="0"
         sodipodi:nodetypes="cccc" />
      <path
         style="fill:#2042a1;fill-opacity:1;fill-rule:evenodd;stroke:#2042a1;stroke-width:3.17735775;stroke-linecap:butt;stroke-linejoin:miter;stroke-miterlimit:4;stroke-dasharray:none;stroke-opacity:1"
         d="m -371.82203,562.56621 0.13241,-9.5339 0.48056,8.64761 1.37325,-0.39725 c -0.64801,-7.85413 -0.28475,-11.6555 -0.0662,-15.00354 -0.46761,4.66694 0.48743,10.01437 0.96002,14.83802 l 1.22484,-0.19862 -0.0662,-4.70824 0.8607,4.70824 c 1.76859,-0.40789 2.43858,-0.43023 4.10487,-0.0331 l 0.0662,-5.00618 0.59587,4.97307 1.58898,0.0662 c 0.64436,-3.68149 0.10283,-9.72767 -0.0662,-15.03663 0.48221,4.96699 1.82485,9.88958 1.19174,15.33456 l 1.32415,0.43035 c 0,0 0.72829,0.65458 0.46346,0.72078 -0.26483,0.0662 -13.8374,0.33104 -13.8374,0.33104 z"
         id="path4508"
         inkscape:connector-curvature="0"
         sodipodi:nodetypes="ccccccccccccccccscc" />
    </g>
    <g
       transform="matrix(0.90909669,0.41658521,-0.41658521,0.90909669,228.05777,132.55896)"
       id="g4516"
       style="stroke-width:3.17735776;stroke-miterlimit:4;stroke-dasharray:none">
      <path
         sodipodi:nodetypes="cccc"
         inkscape:connector-curvature="0"
         id="path4518"
         d="m -372.467,562.73325 14.60655,-0.37453 c 1.63699,-9.02118 9.30026,-32.65377 -8.80139,-46.06681 -13.47024,20.39238 -9.35483,32.10396 -5.80516,46.44134 z"
         style="fill:#ffffff;fill-rule:evenodd;stroke:#2042a1;stroke-width:3.17735776;stroke-linecap:butt;stroke-linejoin:miter;stroke-miterlimit:4;stroke-dasharray:none;stroke-opacity:1" />
      <path
         sodipodi:nodetypes="ccccccccccccccccscc"
         inkscape:connector-curvature="0"
         id="path4520"
         d="m -371.82203,562.56621 0.13241,-9.5339 0.48056,8.64761 1.37325,-0.39725 c -0.64801,-7.85413 -0.28475,-11.6555 -0.0662,-15.00354 -0.46761,4.66694 0.48743,10.01437 0.96002,14.83802 l 1.22484,-0.19862 -0.0662,-4.70824 0.8607,4.70824 c 1.76859,-0.40789 2.43858,-0.43023 4.10487,-0.0331 l 0.0662,-5.00618 0.59587,4.97307 1.58898,0.0662 c 0.64436,-3.68149 0.10283,-9.72767 -0.0662,-15.03663 0.48221,4.96699 1.82485,9.88958 1.19174,15.33456 l 1.32415,0.43035 c 0,0 0.72829,0.65458 0.46346,0.72078 -0.26483,0.0662 -13.8374,0.33104 -13.8374,0.33104 z"
         style="fill:#2042a1;fill-opacity:1;fill-rule:evenodd;stroke:#2042a1;stroke-width:3.17735776;stroke-linecap:butt;stroke-linejoin:miter;stroke-miterlimit:4;stroke-dasharray:none;stroke-opacity:1" />
    </g>
    <g
       style="stroke-width:3.07942204;stroke-miterlimit:4;stroke-dasharray:none"
       id="g4420"
       transform="matrix(1.0272962,0.26549902,-0.21998739,0.97947564,145.09896,35.464577)">
      <path
         style="fill:#ffffff;fill-rule:evenodd;stroke:#2042a1;stroke-width:3.07942204;stroke-linecap:butt;stroke-linejoin:miter;stroke-miterlimit:4;stroke-dasharray:none;stroke-opacity:1"
         d="m -372.467,562.73325 14.60655,-0.37453 c 1.63699,-9.02118 9.30026,-32.65377 -8.80139,-46.06681 -13.47024,20.39238 -9.35483,32.10396 -5.80516,46.44134 z"
         id="path4422"
         inkscape:connector-curvature="0"
         sodipodi:nodetypes="cccc" />
      <path
         style="fill:#2042a1;fill-opacity:1;fill-rule:evenodd;stroke:#2042a1;stroke-width:3.07942204;stroke-linecap:butt;stroke-linejoin:miter;stroke-miterlimit:4;stroke-dasharray:none;stroke-opacity:1"
         d="m -371.82203,562.56621 0.13241,-9.5339 0.48056,8.64761 1.37325,-0.39725 c -0.64801,-7.85413 -0.28475,-11.6555 -0.0662,-15.00354 -0.46761,4.66694 0.48743,10.01437 0.96002,14.83802 l 1.22484,-0.19862 -0.0662,-4.70824 0.8607,4.70824 c 1.76859,-0.40789 2.43858,-0.43023 4.10487,-0.0331 l 0.0662,-5.00618 0.59587,4.97307 1.58898,0.0662 c 0.64436,-3.68149 0.10283,-9.72767 -0.0662,-15.03663 0.48221,4.96699 1.82485,9.88958 1.19174,15.33456 l 1.32415,0.43035 c 0,0 0.72829,0.65458 0.46346,0.72078 -0.26483,0.0662 -13.8374,0.33104 -13.8374,0.33104 z"
         id="path4424"
         inkscape:connector-curvature="0"
         sodipodi:nodetypes="ccccccccccccccccscc" />
    </g>
    <g
       style="stroke-width:3.07942212;stroke-miterlimit:4;stroke-dasharray:none"
       transform="matrix(1.0568873,0.09389578,-0.05681873,1.0022667,55.112493,-20.803495)"
       id="g4426">
      <path
         sodipodi:nodetypes="cccc"
         inkscape:connector-curvature="0"
         id="path4428"
         d="m -372.467,562.73325 14.60655,-0.37453 c 1.63699,-9.02118 9.30026,-32.65377 -8.80139,-46.06681 -13.47024,20.39238 -9.35483,32.10396 -5.80516,46.44134 z"
         style="fill:#ffffff;fill-rule:evenodd;stroke:#2042a1;stroke-width:3.07942212;stroke-linecap:butt;stroke-linejoin:miter;stroke-miterlimit:4;stroke-dasharray:none;stroke-opacity:1" />
      <path
         sodipodi:nodetypes="ccccccccccccccccscc"
         inkscape:connector-curvature="0"
         id="path4430"
         d="m -371.82203,562.56621 0.13241,-9.5339 0.48056,8.64761 1.37325,-0.39725 c -0.64801,-7.85413 -0.28475,-11.6555 -0.0662,-15.00354 -0.46761,4.66694 0.48743,10.01437 0.96002,14.83802 l 1.22484,-0.19862 -0.0662,-4.70824 0.8607,4.70824 c 1.76859,-0.40789 2.43858,-0.43023 4.10487,-0.0331 l 0.0662,-5.00618 0.59587,4.97307 1.58898,0.0662 c 0.64436,-3.68149 0.10283,-9.72767 -0.0662,-15.03663 0.48221,4.96699 1.82485,9.88958 1.19174,15.33456 l 1.32415,0.43035 c 0,0 0.72829,0.65458 0.46346,0.72078 -0.26483,0.0662 -13.8374,0.33104 -13.8374,0.33104 z"
         style="fill:#2042a1;fill-opacity:1;fill-rule:evenodd;stroke:#2042a1;stroke-width:3.07942212;stroke-linecap:butt;stroke-linejoin:miter;stroke-miterlimit:4;stroke-dasharray:none;stroke-opacity:1" />
    </g>
    <g
       style="stroke-width:3.1773578;stroke-miterlimit:4;stroke-dasharray:none"
       id="g4444"
       transform="matrix(0.93424365,0.3566354,-0.3566354,0.93424365,186.70079,131.46244)">
      <path
         style="fill:#ffffff;fill-rule:evenodd;stroke:#2042a1;stroke-width:3.1773578;stroke-linecap:butt;stroke-linejoin:miter;stroke-miterlimit:4;stroke-dasharray:none;stroke-opacity:1"
         d="m -372.467,562.73325 14.60655,-0.37453 c 1.63699,-9.02118 9.30026,-32.65377 -8.80139,-46.06681 -13.47024,20.39238 -9.35483,32.10396 -5.80516,46.44134 z"
         id="path4446"
         inkscape:connector-curvature="0"
         sodipodi:nodetypes="cccc" />
      <path
         style="fill:#2042a1;fill-opacity:1;fill-rule:evenodd;stroke:#2042a1;stroke-width:3.1773578;stroke-linecap:butt;stroke-linejoin:miter;stroke-miterlimit:4;stroke-dasharray:none;stroke-opacity:1"
         d="m -371.82203,562.56621 0.13241,-9.5339 0.48056,8.64761 1.37325,-0.39725 c -0.64801,-7.85413 -0.28475,-11.6555 -0.0662,-15.00354 -0.46761,4.66694 0.48743,10.01437 0.96002,14.83802 l 1.22484,-0.19862 -0.0662,-4.70824 0.8607,4.70824 c 1.76859,-0.40789 2.43858,-0.43023 4.10487,-0.0331 l 0.0662,-5.00618 0.59587,4.97307 1.58898,0.0662 c 0.64436,-3.68149 0.10283,-9.72767 -0.0662,-15.03663 0.48221,4.96699 1.82485,9.88958 1.19174,15.33456 l 1.32415,0.43035 c 0,0 0.72829,0.65458 0.46346,0.72078 -0.26483,0.0662 -13.8374,0.33104 -13.8374,0.33104 z"
         id="path4448"
         inkscape:connector-curvature="0"
         sodipodi:nodetypes="ccccccccccccccccscc" />
    </g>
    <g
       style="stroke-width:3.1773578;stroke-miterlimit:4;stroke-dasharray:none"
       transform="matrix(0.95031273,-0.31129683,0.31129683,0.95031273,-194.88079,-121.0276)"
       id="g4328">
      <path
         sodipodi:nodetypes="cccc"
         inkscape:connector-curvature="0"
         id="path4330"
         d="m -372.467,562.73325 14.60655,-0.37453 c 1.63699,-9.02118 9.30026,-32.65377 -8.80139,-46.06681 -13.47024,20.39238 -9.35483,32.10396 -5.80516,46.44134 z"
         style="fill:#ffffff;fill-rule:evenodd;stroke:#2042a1;stroke-width:3.1773578;stroke-linecap:butt;stroke-linejoin:miter;stroke-miterlimit:4;stroke-dasharray:none;stroke-opacity:1" />
      <path
         sodipodi:nodetypes="ccccccccccccccccscc"
         inkscape:connector-curvature="0"
         id="path4332"
         d="m -371.82203,562.56621 0.13241,-9.5339 0.48056,8.64761 1.37325,-0.39725 c -0.64801,-7.85413 -0.28475,-11.6555 -0.0662,-15.00354 -0.46761,4.66694 0.48743,10.01437 0.96002,14.83802 l 1.22484,-0.19862 -0.0662,-4.70824 0.8607,4.70824 c 1.76859,-0.40789 2.43858,-0.43023 4.10487,-0.0331 l 0.0662,-5.00618 0.59587,4.97307 1.58898,0.0662 c 0.64436,-3.68149 0.10283,-9.72767 -0.0662,-15.03663 0.48221,4.96699 1.82485,9.88958 1.19174,15.33456 l 1.32415,0.43035 c 0,0 0.72829,0.65458 0.46346,0.72078 -0.26483,0.0662 -13.8374,0.33104 -13.8374,0.33104 z"
         style="fill:#2042a1;fill-opacity:1;fill-rule:evenodd;stroke:#2042a1;stroke-width:3.1773578;stroke-linecap:butt;stroke-linejoin:miter;stroke-miterlimit:4;stroke-dasharray:none;stroke-opacity:1" />
    </g>
    <g
       style="stroke-width:3.17735781;stroke-miterlimit:4;stroke-dasharray:none"
       transform="translate(3.7076271,-1.3241525)"
       id="g4324">
      <path
         style="fill:#ffffff;fill-rule:evenodd;stroke:#2042a1;stroke-width:3.17735781;stroke-linecap:butt;stroke-linejoin:miter;stroke-miterlimit:4;stroke-dasharray:none;stroke-opacity:1"
         d="m -372.467,562.73325 14.60655,-0.37453 c 1.63699,-9.02118 9.30026,-32.65377 -8.80139,-46.06681 -13.47024,20.39238 -9.35483,32.10396 -5.80516,46.44134 z"
         id="path4320"
         inkscape:connector-curvature="0"
         sodipodi:nodetypes="cccc" />
      <path
         style="fill:#2042a1;fill-opacity:1;fill-rule:evenodd;stroke:#2042a1;stroke-width:3.17735781;stroke-linecap:butt;stroke-linejoin:miter;stroke-miterlimit:4;stroke-dasharray:none;stroke-opacity:1"
         d="m -371.82203,562.56621 0.13241,-9.5339 0.48056,8.64761 1.37325,-0.39725 c -0.64801,-7.85413 -0.28475,-11.6555 -0.0662,-15.00354 -0.46761,4.66694 0.48743,10.01437 0.96002,14.83802 l 1.22484,-0.19862 -0.0662,-4.70824 0.8607,4.70824 c 1.76859,-0.40789 2.43858,-0.43023 4.10487,-0.0331 l 0.0662,-5.00618 0.59587,4.97307 1.58898,0.0662 c 0.64436,-3.68149 0.10283,-9.72767 -0.0662,-15.03663 0.48221,4.96699 1.82485,9.88958 1.19174,15.33456 l 1.32415,0.43035 c 0,0 0.72829,0.65458 0.46346,0.72078 -0.26483,0.0662 -13.8374,0.33104 -13.8374,0.33104 z"
         id="path4322"
         inkscape:connector-curvature="0"
         sodipodi:nodetypes="ccccccccccccccccscc" />
    </g>
  </g>
  <polygon
     points="390.906,29.178 360.233,7.70501 329.44,29.0038 340.384,-6.80287 310.612,-29.5076 348.047,-30.1644 360.441,-65.4955 372.634,-30.0947 410.065,-29.2258 380.165,-6.69013 390.906,29.178"
     transform="matrix(0.340443, 0, 0, 0.332749, 72.2073, 39.51)"
     id="polygon579"
     style="font-size: 12px; fill: rgb(255, 255, 255); fill-rule: evenodd; stroke-width: 1pt;" />
  <use
     transform="translate(-40.3607, 8.66952)"
     id="use2752"
     x="0"
     y="0"
     width="900"
     height="500"
     xlink:href="#polygon579" />
  <use
     transform="translate(-32.673, 23.1187)"
     id="use2754"
     x="0"
     y="0"
     width="900"
     height="500"
     xlink:href="#use2752" />
  <use
     transform="translate(-16.3364, 34.678)"
     id="use2756"
     x="0"
     y="0"
     width="900"
     height="500"
     xlink:href="#use2754" />
  <use
     transform="translate(-4.1e-05, 38.5311)"
     id="use2758"
     x="0"
     y="0"
     width="900"
     height="500"
     xlink:href="#use2756" />
  <use
     transform="translate(16.3365, 38.531)"
     id="use2760"
     x="0"
     y="0"
     width="900"
     height="500"
     xlink:href="#use2758" />
  <use
     transform="translate(31.2315, 27.935)"
     id="use2762"
     x="0"
     y="0"
     width="900"
     height="500"
     xlink:href="#use2760" />
  <use
     transform="translate(40.3607, 9.63279)"
     id="use2764"
     x="0"
     y="0"
     width="900"
     height="500"
     xlink:href="#use2762" />
  <use
     transform="translate(42.2827, -7.70616)"
     id="use2766"
     x="0"
     y="0"
     width="900"
     height="500"
     xlink:href="#use2764" />
  <use
     transform="translate(31.2313, -27.935)"
     id="use2768"
     x="0"
     y="0"
     width="900"
     height="500"
     xlink:href="#use2766" />
  <use
     transform="translate(17.2975, -38.531)"
     id="use2770"
     x="0"
     y="0"
     width="900"
     height="500"
     xlink:href="#use2768" />
  <use
     transform="translate(-2.883, -37.5678)"
     id="use2772"
     x="0"
     y="0"
     width="900"
     height="500"
     xlink:href="#use2770" />
  <use
     transform="translate(-17.2974, -35.6413)"
     id="use2774"
     x="0"
     y="0"
     width="900"
     height="500"
     xlink:href="#use2772" />
  <use
     transform="translate(-26.9071, -25.0452)"
     id="use2776"
     x="0"
     y="0"
     width="900"
     height="500"
     xlink:href="#use2774" />
</svg>
